<svg xmlns="http://www.w3.org/2000/svg" width="940" height="964" viewBox="0 0 940 964">
<style>svg{--f:ui-sans-serif,system-ui,-apple-system,'Segoe UI',sans-serif;--surface:#ffffff;--text:#1a1a19;--muted:#6b6a64;--grid:#00000018;--baseline:#767672;--s1:#2a78d6;--s2:#1baf7a;--s3:#eda100;}@media (prefers-color-scheme:dark){svg{--surface:#0d1117;--text:#e6edf3;--muted:#9d9d97;--grid:#ffffff1e;--baseline:#9d9d97;--s1:#3987e5;--s2:#199e70;--s3:#c98500;}}.s{fill:var(--surface)}.t{fill:var(--text)}.m{fill:var(--muted)}.g{stroke:var(--grid);stroke-width:1}.b0{fill:var(--baseline)}.b1{fill:var(--s1)}.b2{fill:var(--s2)}.b3{fill:var(--s3)}text{font-family:var(--f)}</style>
<rect width="940" height="964" class="s"/>
<text x="24" y="32" font-size="16" font-weight="600" class="t">Agent token cost — common question, per repository</text>
<text x="24" y="52" font-size="12" class="m">codex · gpt-5.4-mini · N=1 · lower is better</text>
<rect x="24" y="74" width="10" height="10" rx="2" class="b0"/>
<text x="39" y="83" font-size="12" class="t">baseline (no MCP)</text>
<rect x="169.8" y="74" width="10" height="10" rx="2" class="b1"/>
<text x="184.8" y="83" font-size="12" class="t">@samchon/graph</text>
<rect x="296.40000000000003" y="74" width="10" height="10" rx="2" class="b2"/>
<text x="311.40000000000003" y="83" font-size="12" class="t">codegraph</text>
<rect x="391" y="74" width="10" height="10" rx="2" class="b3"/>
<text x="406" y="83" font-size="12" class="t">serena</text>
<line x1="96" y1="98" x2="96" y2="908" class="g"/>
<text x="96" y="934" font-size="11" class="m" text-anchor="middle">0</text>
<line x1="265" y1="98" x2="265" y2="908" class="g"/>
<text x="265" y="934" font-size="11" class="m" text-anchor="middle">553.0k</text>
<line x1="434" y1="98" x2="434" y2="908" class="g"/>
<text x="434" y="934" font-size="11" class="m" text-anchor="middle">1106.0k</text>
<line x1="603" y1="98" x2="603" y2="908" class="g"/>
<text x="603" y="934" font-size="11" class="m" text-anchor="middle">1659.0k</text>
<line x1="772" y1="98" x2="772" y2="908" class="g"/>
<text x="772" y="934" font-size="11" class="m" text-anchor="middle">2211.9k</text>
<text x="772" y="952" font-size="11" class="m" text-anchor="end">tokens</text>
<text x="88" y="116" font-size="12" font-weight="600" class="t" text-anchor="end">excalidraw</text>
<text x="88" y="129" font-size="10" class="m" text-anchor="end">typescript</text>
<path d="M 96 104 L 473.3259358887128 104 Q 477.3259358887128 104 477.3259358887128 108 L 477.3259358887128 112 Q 477.3259358887128 116 473.3259358887128 116 L 96 116 Z" class="b0"/>
<text x="483.3259358887128" y="114" font-size="11" class="m">1247.7k</text>
<path d="M 96 118 L 102.53331856496688 118 Q 106.53331856496688 118 106.53331856496688 122 L 106.53331856496688 126 Q 106.53331856496688 130 102.53331856496688 130 L 96 130 Z" class="b1"/>
<text x="112.53331856496688" y="128" font-size="11" class="m">34.5k (-97%)</text>
<path d="M 96 132 L 247.39410696968943 132 Q 251.39410696968943 132 251.39410696968943 136 L 251.39410696968943 140 Q 251.39410696968943 144 247.39410696968943 144 L 96 144 Z" class="b2"/>
<text x="257.39410696968946" y="142" font-size="11" class="m">508.5k (-59%)</text>
<path d="M 96 146 L 658.5294016325073 146 Q 662.5294016325073 146 662.5294016325073 150 L 662.5294016325073 154 Q 662.5294016325073 158 658.5294016325073 158 L 96 158 Z" class="b3"/>
<text x="668.5294016325073" y="156" font-size="11" class="m">1853.7k (+49%)</text>
<text x="88" y="184" font-size="12" font-weight="600" class="t" text-anchor="end">express</text>
<text x="88" y="197" font-size="10" class="m" text-anchor="end">javascript</text>
<path d="M 96 172 L 222.59805283609148 172 Q 226.59805283609148 172 226.59805283609148 176 L 226.59805283609148 180 Q 226.59805283609148 184 222.59805283609148 184 L 96 184 Z" class="b0"/>
<text x="232.59805283609148" y="182" font-size="11" class="m">427.3k</text>
<path d="M 96 186 L 102.04494616704379 186 Q 106.04494616704379 186 106.04494616704379 190 L 106.04494616704379 194 Q 106.04494616704379 198 102.04494616704379 198 L 96 198 Z" class="b1"/>
<text x="112.04494616704379" y="196" font-size="11" class="m">32.9k (-92%)</text>
<path d="M 96 200 L 257.61906023459096 200 Q 261.61906023459096 200 261.61906023459096 204 L 261.61906023459096 208 Q 261.61906023459096 212 257.61906023459096 212 L 96 212 Z" class="b2"/>
<text x="267.61906023459096" y="210" font-size="11" class="m">541.9k (+27%)</text>
<path d="M 96 214 L 448.942461690782 214 Q 452.942461690782 214 452.942461690782 218 L 452.942461690782 222 Q 452.942461690782 226 448.942461690782 226 L 96 226 Z" class="b3"/>
<text x="458.942461690782" y="224" font-size="11" class="m">1167.9k (+173%)</text>
<text x="88" y="252" font-size="12" font-weight="600" class="t" text-anchor="end">gin</text>
<text x="88" y="265" font-size="10" class="m" text-anchor="end">go</text>
<path d="M 96 240 L 544.1270977673395 240 Q 548.1270977673395 240 548.1270977673395 244 L 548.1270977673395 248 Q 548.1270977673395 252 544.1270977673395 252 L 96 252 Z" class="b0"/>
<text x="554.1270977673395" y="250" font-size="11" class="m">1479.4k</text>
<path d="M 96 254 L 103.05744789064778 254 Q 107.05744789064778 254 107.05744789064778 258 L 107.05744789064778 262 Q 107.05744789064778 266 103.05744789064778 266 L 96 266 Z" class="b1"/>
<text x="113.05744789064778" y="264" font-size="11" class="m">36.2k (-98%)</text>
<path d="M 96 268 L 217.30083207689194 268 Q 221.30083207689194 268 221.30083207689194 272 L 221.30083207689194 276 Q 221.30083207689194 280 217.30083207689194 280 L 96 280 Z" class="b2"/>
<text x="227.30083207689194" y="278" font-size="11" class="m">410.0k (-72%)</text>
<path d="M 96 282 L 406.3697133957372 282 Q 410.3697133957372 282 410.3697133957372 286 L 410.3697133957372 290 Q 410.3697133957372 294 406.3697133957372 294 L 96 294 Z" class="b3"/>
<text x="416.3697133957372" y="292" font-size="11" class="m">1028.6k (-30%)</text>
<text x="88" y="320" font-size="12" font-weight="600" class="t" text-anchor="end">flask</text>
<text x="88" y="333" font-size="10" class="m" text-anchor="end">python</text>
<path d="M 96 308 L 305.44807691003575 308 Q 309.44807691003575 308 309.44807691003575 312 L 309.44807691003575 316 Q 309.44807691003575 320 305.44807691003575 320 L 96 320 Z" class="b0"/>
<text x="315.44807691003575" y="318" font-size="11" class="m">698.4k</text>
<path d="M 96 322 L 102.51559290847155 322 Q 106.51559290847155 322 106.51559290847155 326 L 106.51559290847155 330 Q 106.51559290847155 334 102.51559290847155 334 L 96 334 Z" class="b1"/>
<text x="112.51559290847155" y="332" font-size="11" class="m">34.4k (-95%)</text>
<path d="M 96 336 L 117.46229432600867 336 Q 121.46229432600867 336 121.46229432600867 340 L 121.46229432600867 344 Q 121.46229432600867 348 117.46229432600867 348 L 96 348 Z" class="b2"/>
<text x="127.46229432600867" y="346" font-size="11" class="m">83.3k (-88%)</text>
<path d="M 96 350 L 445.73228417652416 350 Q 449.73228417652416 350 449.73228417652416 354 L 449.73228417652416 358 Q 449.73228417652416 362 445.73228417652416 362 L 96 362 Z" class="b3"/>
<text x="455.73228417652416" y="360" font-size="11" class="m">1157.4k (+66%)</text>
<text x="88" y="388" font-size="12" font-weight="600" class="t" text-anchor="end">tokio</text>
<text x="88" y="401" font-size="10" class="m" text-anchor="end">rust</text>
<path d="M 96 376 L 768 376 Q 772 376 772 380 L 772 384 Q 772 388 768 388 L 96 388 Z" class="b0"/>
<text x="778" y="386" font-size="11" class="m">2211.9k</text>
<path d="M 96 390 L 103.7181870172496 390 Q 107.7181870172496 390 107.7181870172496 394 L 107.7181870172496 398 Q 107.7181870172496 402 103.7181870172496 402 L 96 402 Z" class="b1"/>
<text x="113.7181870172496" y="400" font-size="11" class="m">38.3k (-98%)</text>
<path d="M 96 404 L 113.93427745390349 404 Q 117.93427745390349 404 117.93427745390349 408 L 117.93427745390349 412 Q 117.93427745390349 416 113.93427745390349 416 L 96 416 Z" class="b2"/>
<text x="123.93427745390349" y="414" font-size="11" class="m">71.8k (-97%)</text>
<path d="M 96 418 L 516.1563174324742 418 Q 520.1563174324742 418 520.1563174324742 422 L 520.1563174324742 426 Q 520.1563174324742 430 516.1563174324742 430 L 96 430 Z" class="b3"/>
<text x="526.1563174324742" y="428" font-size="11" class="m">1387.9k (-37%)</text>
<text x="88" y="456" font-size="12" font-weight="600" class="t" text-anchor="end">gson</text>
<text x="88" y="469" font-size="10" class="m" text-anchor="end">java</text>
<path d="M 96 444 L 430.84945624532367 444 Q 434.84945624532367 444 434.84945624532367 448 L 434.84945624532367 452 Q 434.84945624532367 456 430.84945624532367 456 L 96 456 Z" class="b0"/>
<text x="440.84945624532367" y="454" font-size="11" class="m">1108.7k</text>
<path d="M 96 458 L 105.75235890747241 458 Q 109.75235890747241 458 109.75235890747241 462 L 109.75235890747241 466 Q 109.75235890747241 470 105.75235890747241 470 L 96 470 Z" class="b1"/>
<text x="115.75235890747241" y="468" font-size="11" class="m">45.0k (-96%)</text>
<path d="M 96 472 L 231.34933169374327 472 Q 235.34933169374327 472 235.34933169374327 476 L 235.34933169374327 480 Q 235.34933169374327 484 231.34933169374327 484 L 96 484 Z" class="b2"/>
<text x="241.34933169374327" y="482" font-size="11" class="m">456.0k (-59%)</text>
<path d="M 96 486 L 345.4179042331714 486 Q 349.4179042331714 486 349.4179042331714 490 L 349.4179042331714 494 Q 349.4179042331714 498 345.4179042331714 498 L 96 498 Z" class="b3"/>
<text x="355.4179042331714" y="496" font-size="11" class="m">829.2k (-25%)</text>
<text x="88" y="524" font-size="12" font-weight="600" class="t" text-anchor="end">redis</text>
<text x="88" y="537" font-size="10" class="m" text-anchor="end">c</text>
<path d="M 96 512 L 307.6060227809587 512 Q 311.6060227809587 512 311.6060227809587 516 L 311.6060227809587 520 Q 311.6060227809587 524 307.6060227809587 524 L 96 524 Z" class="b0"/>
<text x="317.6060227809587" y="522" font-size="11" class="m">705.5k</text>
<path d="M 96 526 L 103.25915363697396 526 Q 107.25915363697396 526 107.25915363697396 530 L 107.25915363697396 534 Q 107.25915363697396 538 103.25915363697396 538 L 96 538 Z" class="b1"/>
<text x="113.25915363697396" y="536" font-size="11" class="m">36.8k (-95%)</text>
<path d="M 96 540 L 200.09166453806282 540 Q 204.09166453806282 540 204.09166453806282 544 L 204.09166453806282 548 Q 204.09166453806282 552 200.09166453806282 552 L 96 552 Z" class="b2"/>
<text x="210.09166453806282" y="550" font-size="11" class="m">353.7k (-50%)</text>
<path d="M 96 554 L 370.34873447908734 554 Q 374.34873447908734 554 374.34873447908734 558 L 374.34873447908734 562 Q 374.34873447908734 566 370.34873447908734 566 L 96 566 Z" class="b3"/>
<text x="380.34873447908734" y="564" font-size="11" class="m">910.8k (+29%)</text>
<text x="88" y="592" font-size="12" font-weight="600" class="t" text-anchor="end">leveldb</text>
<text x="88" y="605" font-size="10" class="m" text-anchor="end">cpp</text>
<path d="M 96 580 L 269.6706729628131 580 Q 273.6706729628131 580 273.6706729628131 584 L 273.6706729628131 588 Q 273.6706729628131 592 269.6706729628131 592 L 96 592 Z" class="b0"/>
<text x="279.6706729628131" y="590" font-size="11" class="m">581.4k</text>
<path d="M 96 594 L 103.57577053575264 594 Q 107.57577053575264 594 107.57577053575264 598 L 107.57577053575264 602 Q 107.57577053575264 606 103.57577053575264 606 L 96 606 Z" class="b1"/>
<text x="113.57577053575264" y="604" font-size="11" class="m">37.9k (-93%)</text>
<path d="M 96 608 L 219.38543040369632 608 Q 223.38543040369632 608 223.38543040369632 612 L 223.38543040369632 616 Q 223.38543040369632 620 219.38543040369632 620 L 96 620 Z" class="b2"/>
<text x="229.38543040369632" y="618" font-size="11" class="m">416.8k (-28%)</text>
<path d="M 96 622 L 455.8328522311913 622 Q 459.8328522311913 622 459.8328522311913 626 L 459.8328522311913 630 Q 459.8328522311913 634 455.8328522311913 634 L 96 634 Z" class="b3"/>
<text x="465.8328522311913" y="632" font-size="11" class="m">1190.5k (+105%)</text>
<text x="88" y="660" font-size="12" font-weight="600" class="t" text-anchor="end">sinatra</text>
<text x="88" y="673" font-size="10" class="m" text-anchor="end">ruby</text>
<path d="M 96 648 L 282.8851498800824 648 Q 286.8851498800824 648 286.8851498800824 652 L 286.8851498800824 656 Q 286.8851498800824 660 282.8851498800824 660 L 96 660 Z" class="b0"/>
<text x="292.8851498800824" y="658" font-size="11" class="m">624.6k</text>
<path d="M 96 662 L 162.165483162932 662 Q 166.165483162932 662 166.165483162932 666 L 166.165483162932 670 Q 166.165483162932 674 162.165483162932 674 L 96 674 Z" class="b1"/>
<text x="172.165483162932" y="672" font-size="11" class="m">229.6k (-63%)</text>
<path d="M 96 676 L 190.16193513823868 676 Q 194.16193513823868 676 194.16193513823868 680 L 194.16193513823868 684 Q 194.16193513823868 688 190.16193513823868 688 L 96 688 Z" class="b2"/>
<text x="200.16193513823868" y="686" font-size="11" class="m">321.2k (-49%)</text>
<path d="M 96 690 L 254.39024021953628 690 Q 258.3902402195363 690 258.3902402195363 694 L 258.3902402195363 698 Q 258.3902402195363 702 254.39024021953628 702 L 96 702 Z" class="b3"/>
<text x="264.3902402195363" y="700" font-size="11" class="m">531.4k (-15%)</text>
<text x="88" y="728" font-size="12" font-weight="600" class="t" text-anchor="end">slim</text>
<text x="88" y="741" font-size="10" class="m" text-anchor="end">php</text>
<path d="M 96 716 L 433.8460090373361 716 Q 437.8460090373361 716 437.8460090373361 720 L 437.8460090373361 724 Q 437.8460090373361 728 433.8460090373361 728 L 96 728 Z" class="b0"/>
<text x="443.8460090373361" y="726" font-size="11" class="m">1118.6k</text>
<path d="M 96 730 L 102.12562846557427 730 Q 106.12562846557427 730 106.12562846557427 734 L 106.12562846557427 738 Q 106.12562846557427 742 102.12562846557427 742 L 96 742 Z" class="b1"/>
<text x="112.12562846557427" y="740" font-size="11" class="m">33.1k (-97%)</text>
<path d="M 96 744 L 159.92593814917709 744 Q 163.92593814917709 744 163.92593814917709 748 L 163.92593814917709 752 Q 163.92593814917709 756 159.92593814917709 756 L 96 756 Z" class="b2"/>
<text x="169.92593814917709" y="754" font-size="11" class="m">222.3k (-80%)</text>
<path d="M 96 758 L 396.8858759412008 758 Q 400.8858759412008 758 400.8858759412008 762 L 400.8858759412008 766 Q 400.8858759412008 770 396.8858759412008 770 L 96 770 Z" class="b3"/>
<text x="406.8858759412008" y="768" font-size="11" class="m">997.6k (-11%)</text>
<text x="88" y="796" font-size="12" font-weight="600" class="t" text-anchor="end">lualine</text>
<text x="88" y="809" font-size="10" class="m" text-anchor="end">lua</text>
<path d="M 96 784 L 445.5831441701497 784 Q 449.5831441701497 784 449.5831441701497 788 L 449.5831441701497 792 Q 449.5831441701497 796 445.5831441701497 796 L 96 796 Z" class="b0"/>
<text x="455.5831441701497" y="794" font-size="11" class="m">1157.0k</text>
<path d="M 96 798 L 103.26923892429028 798 Q 107.26923892429028 798 107.26923892429028 802 L 107.26923892429028 806 Q 107.26923892429028 810 103.26923892429028 810 L 96 810 Z" class="b1"/>
<text x="113.26923892429028" y="808" font-size="11" class="m">36.9k (-97%)</text>
<path d="M 96 812 L 210.97155024899013 812 Q 214.97155024899013 812 214.97155024899013 816 L 214.97155024899013 820 Q 214.97155024899013 824 210.97155024899013 824 L 96 824 Z" class="b2"/>
<text x="220.97155024899013" y="822" font-size="11" class="m">389.3k (-66%)</text>
<path d="M 96 826 L 471.9943723481929 826 Q 475.9943723481929 826 475.9943723481929 830 L 475.9943723481929 834 Q 475.9943723481929 838 471.9943723481929 838 L 96 838 Z" class="b3"/>
<text x="481.9943723481929" y="836" font-size="11" class="m">1243.4k (+7%)</text>
<text x="88" y="864" font-size="12" font-weight="600" class="t" text-anchor="end">darthttp</text>
<text x="88" y="877" font-size="10" class="m" text-anchor="end">dart</text>
<path d="M 96 852 L 415.57360772355423 852 Q 419.57360772355423 852 419.57360772355423 856 L 419.57360772355423 860 Q 419.57360772355423 864 415.57360772355423 864 L 96 864 Z" class="b0"/>
<text x="425.57360772355423" y="862" font-size="11" class="m">1058.8k</text>
<path d="M 96 866 L 103.50609036883995 866 Q 107.50609036883995 866 107.50609036883995 870 L 107.50609036883995 874 Q 107.50609036883995 878 103.50609036883995 878 L 96 878 Z" class="b1"/>
<text x="113.50609036883995" y="876" font-size="11" class="m">37.6k (-96%)</text>
<path d="M 96 880 L 175.71491386500958 880 Q 179.71491386500958 880 179.71491386500958 884 L 179.71491386500958 888 Q 179.71491386500958 892 175.71491386500958 892 L 96 892 Z" class="b2"/>
<text x="185.71491386500958" y="890" font-size="11" class="m">273.9k (-74%)</text>
<path d="M 96 894 L 351.05099562148075 894 Q 355.05099562148075 894 355.05099562148075 898 L 355.05099562148075 902 Q 355.05099562148075 906 351.05099562148075 906 L 96 906 Z" class="b3"/>
<text x="361.05099562148075" y="904" font-size="11" class="m">847.6k (-20%)</text>
</svg>