<svg xmlns="http://www.w3.org/2000/svg" width="940" height="828" viewBox="0 0 940 828">
<style>svg{--f:ui-sans-serif,system-ui,-apple-system,'Segoe UI',sans-serif;--surface:#ffffff;--text:#1a1a19;--muted:#6b6a64;--grid:#00000018;--baseline:#767672;--s1:#2a78d6;--s2:#1baf7a;--s3:#eda100;}@media (prefers-color-scheme:dark){svg{--surface:#0d1117;--text:#e6edf3;--muted:#9d9d97;--grid:#ffffff1e;--baseline:#9d9d97;--s1:#3987e5;--s2:#199e70;--s3:#c98500;}}.s{fill:var(--surface)}.t{fill:var(--text)}.m{fill:var(--muted)}.g{stroke:var(--grid);stroke-width:1}.b0{fill:var(--baseline)}.b1{fill:var(--s1)}.b2{fill:var(--s2)}.b3{fill:var(--s3)}text{font-family:var(--f)}</style>
<rect width="940" height="828" class="s"/>
<text x="24" y="32" font-size="16" font-weight="600" class="t">Agent token cost — dedicated question, per repository</text>
<text x="24" y="52" font-size="12" class="m">codex · gpt-5.4-mini · N=1 · lower is better</text>
<rect x="24" y="74" width="10" height="10" rx="2" class="b0"/>
<text x="39" y="83" font-size="12" class="t">baseline (no MCP)</text>
<rect x="169.8" y="74" width="10" height="10" rx="2" class="b1"/>
<text x="184.8" y="83" font-size="12" class="t">@samchon/graph</text>
<rect x="296.40000000000003" y="74" width="10" height="10" rx="2" class="b2"/>
<text x="311.40000000000003" y="83" font-size="12" class="t">codegraph</text>
<rect x="391" y="74" width="10" height="10" rx="2" class="b3"/>
<text x="406" y="83" font-size="12" class="t">serena</text>
<line x1="96" y1="98" x2="96" y2="772" class="g"/>
<text x="96" y="798" font-size="11" class="m" text-anchor="middle">0</text>
<line x1="265" y1="98" x2="265" y2="772" class="g"/>
<text x="265" y="798" font-size="11" class="m" text-anchor="middle">166.0k</text>
<line x1="434" y1="98" x2="434" y2="772" class="g"/>
<text x="434" y="798" font-size="11" class="m" text-anchor="middle">332.0k</text>
<line x1="603" y1="98" x2="603" y2="772" class="g"/>
<text x="603" y="798" font-size="11" class="m" text-anchor="middle">498.0k</text>
<line x1="772" y1="98" x2="772" y2="772" class="g"/>
<text x="772" y="798" font-size="11" class="m" text-anchor="middle">664.0k</text>
<text x="772" y="816" font-size="11" class="m" text-anchor="end">tokens</text>
<text x="88" y="116" font-size="12" font-weight="600" class="t" text-anchor="end">excalidraw</text>
<text x="88" y="129" font-size="10" class="m" text-anchor="end">typescript</text>
<path d="M 96 104 L 691.7305401396095 104 Q 695.7305401396095 104 695.7305401396095 108 L 695.7305401396095 112 Q 695.7305401396095 116 691.7305401396095 116 L 96 116 Z" class="b0"/>
<text x="701.7305401396095" y="114" font-size="11" class="m">589.1k</text>
<path d="M 96 118 L 126.97308262863424 118 Q 130.97308262863424 118 130.97308262863424 122 L 130.97308262863424 126 Q 130.97308262863424 130 126.97308262863424 130 L 96 130 Z" class="b1"/>
<text x="136.97308262863424" y="128" font-size="11" class="m">34.4k (-94%)</text>
<path d="M 96 132 L 157.4890112124338 132 Q 161.4890112124338 132 161.4890112124338 136 L 161.4890112124338 140 Q 161.4890112124338 144 157.4890112124338 144 L 96 144 Z" class="b2"/>
<text x="167.4890112124338" y="142" font-size="11" class="m">64.3k (-89%)</text>
<path d="M 96 146 L 716.4291598581315 146 Q 720.4291598581315 146 720.4291598581315 150 L 720.4291598581315 154 Q 720.4291598581315 158 716.4291598581315 158 L 96 158 Z" class="b3"/>
<text x="726.4291598581315" y="156" font-size="11" class="m">613.3k (+4%)</text>
<text x="88" y="184" font-size="12" font-weight="600" class="t" text-anchor="end">gin</text>
<text x="88" y="197" font-size="10" class="m" text-anchor="end">go</text>
<path d="M 96 172 L 207.2171266349897 172 Q 211.2171266349897 172 211.2171266349897 176 L 211.2171266349897 180 Q 211.2171266349897 184 207.2171266349897 184 L 96 184 Z" class="b0"/>
<text x="217.2171266349897" y="182" font-size="11" class="m">113.2k</text>
<path d="M 96 186 L 126.44368105181513 186 Q 130.44368105181513 186 130.44368105181513 190 L 130.44368105181513 194 Q 130.44368105181513 198 126.44368105181513 198 L 96 198 Z" class="b1"/>
<text x="136.44368105181513" y="196" font-size="11" class="m">33.8k (-70%)</text>
<path d="M 96 200 L 175.26570531404604 200 Q 179.26570531404604 200 179.26570531404604 204 L 179.26570531404604 208 Q 179.26570531404604 212 175.26570531404604 212 L 96 212 Z" class="b2"/>
<text x="185.26570531404604" y="210" font-size="11" class="m">81.8k (-28%)</text>
<path d="M 96 214 L 194.3231439995783 214 Q 198.3231439995783 214 198.3231439995783 218 L 198.3231439995783 222 Q 198.3231439995783 226 194.3231439995783 226 L 96 226 Z" class="b3"/>
<text x="204.3231439995783" y="224" font-size="11" class="m">100.5k (-11%)</text>
<text x="88" y="252" font-size="12" font-weight="600" class="t" text-anchor="end">flask</text>
<text x="88" y="265" font-size="10" class="m" text-anchor="end">python</text>
<path d="M 96 240 L 152.17768808500063 240 Q 156.17768808500063 240 156.17768808500063 244 L 156.17768808500063 248 Q 156.17768808500063 252 152.17768808500063 252 L 96 252 Z" class="b0"/>
<text x="162.17768808500063" y="250" font-size="11" class="m">59.1k</text>
<path d="M 96 254 L 125.39505869773114 254 Q 129.39505869773114 254 129.39505869773114 258 L 129.39505869773114 262 Q 129.39505869773114 266 125.39505869773114 266 L 96 266 Z" class="b1"/>
<text x="135.39505869773114" y="264" font-size="11" class="m">32.8k (-45%)</text>
<path d="M 96 268 L 179.65261184195663 268 Q 183.65261184195663 268 183.65261184195663 272 L 183.65261184195663 276 Q 183.65261184195663 280 179.65261184195663 280 L 96 280 Z" class="b2"/>
<text x="189.65261184195663" y="278" font-size="11" class="m">86.1k (+46%)</text>
<path d="M 96 282 L 317.09951430357154 282 Q 321.09951430357154 282 321.09951430357154 286 L 321.09951430357154 290 Q 321.09951430357154 294 317.09951430357154 294 L 96 294 Z" class="b3"/>
<text x="327.09951430357154" y="292" font-size="11" class="m">221.1k (+274%)</text>
<text x="88" y="320" font-size="12" font-weight="600" class="t" text-anchor="end">tokio</text>
<text x="88" y="333" font-size="10" class="m" text-anchor="end">rust</text>
<path d="M 96 308 L 495.61576216688377 308 Q 499.61576216688377 308 499.61576216688377 312 L 499.61576216688377 316 Q 499.61576216688377 320 495.61576216688377 320 L 96 320 Z" class="b0"/>
<text x="505.61576216688377" y="318" font-size="11" class="m">396.4k</text>
<path d="M 96 322 L 126.62591736383558 322 Q 130.62591736383558 322 130.62591736383558 326 L 130.62591736383558 330 Q 130.62591736383558 334 126.62591736383558 334 L 96 334 Z" class="b1"/>
<text x="136.62591736383558" y="332" font-size="11" class="m">34.0k (-91%)</text>
<path d="M 96 336 L 208.81042176522413 336 Q 212.81042176522413 336 212.81042176522413 340 L 212.81042176522413 344 Q 212.81042176522413 348 208.81042176522413 348 L 96 348 Z" class="b2"/>
<text x="218.81042176522413" y="346" font-size="11" class="m">114.7k (-71%)</text>
<path d="M 96 350 L 357.7575554032787 350 Q 361.7575554032787 350 361.7575554032787 354 L 361.7575554032787 358 Q 361.7575554032787 362 357.7575554032787 362 L 96 362 Z" class="b3"/>
<text x="367.7575554032787" y="360" font-size="11" class="m">261.0k (-34%)</text>
<text x="88" y="388" font-size="12" font-weight="600" class="t" text-anchor="end">gson</text>
<text x="88" y="401" font-size="10" class="m" text-anchor="end">java</text>
<path d="M 96 376 L 259.02416132651604 376 Q 263.02416132651604 376 263.02416132651604 380 L 263.02416132651604 384 Q 263.02416132651604 388 259.02416132651604 388 L 96 388 Z" class="b0"/>
<text x="269.02416132651604" y="386" font-size="11" class="m">164.1k</text>
<path d="M 96 390 L 127.83946867069781 390 Q 131.8394686706978 390 131.8394686706978 394 L 131.8394686706978 398 Q 131.8394686706978 402 127.83946867069781 402 L 96 402 Z" class="b1"/>
<text x="137.8394686706978" y="400" font-size="11" class="m">35.2k (-79%)</text>
<path d="M 96 404 L 251.98108419491112 404 Q 255.98108419491112 404 255.98108419491112 408 L 255.98108419491112 412 Q 255.98108419491112 416 251.98108419491112 416 L 96 416 Z" class="b2"/>
<text x="261.9810841949111" y="414" font-size="11" class="m">157.1k (-4%)</text>
<path d="M 96 418 L 314.36291538339896 418 Q 318.36291538339896 418 318.36291538339896 422 L 318.36291538339896 426 Q 318.36291538339896 430 314.36291538339896 430 L 96 430 Z" class="b3"/>
<text x="324.36291538339896" y="428" font-size="11" class="m">218.4k (+33%)</text>
<text x="88" y="456" font-size="12" font-weight="600" class="t" text-anchor="end">redis</text>
<text x="88" y="469" font-size="10" class="m" text-anchor="end">c</text>
<path d="M 96 444 L 461.407257584771 444 Q 465.407257584771 444 465.407257584771 448 L 465.407257584771 452 Q 465.407257584771 456 461.407257584771 456 L 96 456 Z" class="b0"/>
<text x="471.407257584771" y="454" font-size="11" class="m">362.8k</text>
<path d="M 96 458 L 338.34175257343804 458 Q 342.34175257343804 458 342.34175257343804 462 L 342.34175257343804 466 Q 342.34175257343804 470 338.34175257343804 470 L 96 470 Z" class="b1"/>
<text x="348.34175257343804" y="468" font-size="11" class="m">242.0k (-33%)</text>
<path d="M 96 472 L 263.59941264617953 472 Q 267.59941264617953 472 267.59941264617953 476 L 267.59941264617953 480 Q 267.59941264617953 484 263.59941264617953 484 L 96 484 Z" class="b2"/>
<text x="273.59941264617953" y="482" font-size="11" class="m">168.6k (-54%)</text>
<path d="M 96 486 L 464.20595938222425 486 Q 468.20595938222425 486 468.20595938222425 490 L 468.20595938222425 494 Q 468.20595938222425 498 464.20595938222425 498 L 96 498 Z" class="b3"/>
<text x="474.20595938222425" y="496" font-size="11" class="m">365.6k (+1%)</text>
<text x="88" y="524" font-size="12" font-weight="600" class="t" text-anchor="end">leveldb</text>
<text x="88" y="537" font-size="10" class="m" text-anchor="end">cpp</text>
<path d="M 96 512 L 513.7569288925368 512 Q 517.7569288925368 512 517.7569288925368 516 L 517.7569288925368 520 Q 517.7569288925368 524 513.7569288925368 524 L 96 524 Z" class="b0"/>
<text x="523.7569288925368" y="522" font-size="11" class="m">414.3k</text>
<path d="M 96 526 L 329.1138758574989 526 Q 333.1138758574989 526 333.1138758574989 530 L 333.1138758574989 534 Q 333.1138758574989 538 329.1138758574989 538 L 96 538 Z" class="b1"/>
<text x="339.1138758574989" y="536" font-size="11" class="m">232.9k (-44%)</text>
<path d="M 96 540 L 259.3367118728304 540 Q 263.3367118728304 540 263.3367118728304 544 L 263.3367118728304 548 Q 263.3367118728304 552 259.3367118728304 552 L 96 552 Z" class="b2"/>
<text x="269.3367118728304" y="550" font-size="11" class="m">164.4k (-60%)</text>
<path d="M 96 554 L 347.5278880112049 554 Q 351.5278880112049 554 351.5278880112049 558 L 351.5278880112049 562 Q 351.5278880112049 566 347.5278880112049 566 L 96 566 Z" class="b3"/>
<text x="357.5278880112049" y="564" font-size="11" class="m">251.0k (-39%)</text>
<text x="88" y="592" font-size="12" font-weight="600" class="t" text-anchor="end">slim</text>
<text x="88" y="605" font-size="10" class="m" text-anchor="end">php</text>
<path d="M 96 580 L 262.998745472481 580 Q 266.998745472481 580 266.998745472481 584 L 266.998745472481 588 Q 266.998745472481 592 262.998745472481 592 L 96 592 Z" class="b0"/>
<text x="272.998745472481" y="590" font-size="11" class="m">168.0k</text>
<path d="M 96 594 L 129.32382924570214 594 Q 133.32382924570214 594 133.32382924570214 598 L 133.32382924570214 602 Q 133.32382924570214 606 129.32382924570214 606 L 96 606 Z" class="b1"/>
<text x="139.32382924570214" y="604" font-size="11" class="m">36.7k (-78%)</text>
<path d="M 96 608 L 175.8775713672543 608 Q 179.8775713672543 608 179.8775713672543 612 L 179.8775713672543 616 Q 179.8775713672543 620 175.8775713672543 620 L 96 620 Z" class="b2"/>
<text x="185.8775713672543" y="618" font-size="11" class="m">82.4k (-51%)</text>
<path d="M 96 622 L 222.1075640629824 622 Q 226.1075640629824 622 226.1075640629824 626 L 226.1075640629824 630 Q 226.1075640629824 634 222.1075640629824 634 L 96 634 Z" class="b3"/>
<text x="232.1075640629824" y="632" font-size="11" class="m">127.8k (-24%)</text>
<text x="88" y="660" font-size="12" font-weight="600" class="t" text-anchor="end">lualine</text>
<text x="88" y="673" font-size="10" class="m" text-anchor="end">lua</text>
<path d="M 96 648 L 588.8443979246831 648 Q 592.8443979246831 648 592.8443979246831 652 L 592.8443979246831 656 Q 592.8443979246831 660 588.8443979246831 660 L 96 660 Z" class="b0"/>
<text x="598.8443979246831" y="658" font-size="11" class="m">488.0k</text>
<path d="M 96 662 L 124.64167953071936 662 Q 128.64167953071936 662 128.64167953071936 666 L 128.64167953071936 670 Q 128.64167953071936 674 124.64167953071936 674 L 96 674 Z" class="b1"/>
<text x="134.64167953071936" y="672" font-size="11" class="m">32.1k (-93%)</text>
<path d="M 96 676 L 456.0898259776053 676 Q 460.0898259776053 676 460.0898259776053 680 L 460.0898259776053 684 Q 460.0898259776053 688 456.0898259776053 688 L 96 688 Z" class="b2"/>
<text x="466.0898259776053" y="686" font-size="11" class="m">357.6k (-27%)</text>
<path d="M 96 690 L 488.11149481547295 690 Q 492.11149481547295 690 492.11149481547295 694 L 492.11149481547295 698 Q 492.11149481547295 702 488.11149481547295 702 L 96 702 Z" class="b3"/>
<text x="498.11149481547295" y="700" font-size="11" class="m">389.1k (-20%)</text>
<text x="88" y="728" font-size="12" font-weight="600" class="t" text-anchor="end">darthttp</text>
<text x="88" y="741" font-size="10" class="m" text-anchor="end">dart</text>
<path d="M 96 716 L 398.56932657625435 716 Q 402.56932657625435 716 402.56932657625435 720 L 402.56932657625435 724 Q 402.56932657625435 728 398.56932657625435 728 L 96 728 Z" class="b0"/>
<text x="408.56932657625435" y="726" font-size="11" class="m">301.1k</text>
<path d="M 96 730 L 126.61166424445969 730 Q 130.6116642444597 730 130.6116642444597 734 L 130.6116642444597 738 Q 130.6116642444597 742 126.61166424445969 742 L 96 742 Z" class="b1"/>
<text x="136.6116642444597" y="740" font-size="11" class="m">34.0k (-89%)</text>
<path d="M 96 744 L 208.21280883139178 744 Q 212.21280883139178 744 212.21280883139178 748 L 212.21280883139178 752 Q 212.21280883139178 756 208.21280883139178 756 L 96 756 Z" class="b2"/>
<text x="218.21280883139178" y="754" font-size="11" class="m">114.1k (-62%)</text>
<path d="M 96 758 L 768 758 Q 772 758 772 762 L 772 766 Q 772 770 768 770 L 96 770 Z" class="b3"/>
<text x="778" y="768" font-size="11" class="m">664.0k (+121%)</text>
</svg>